<?xml version="1.0" standalone="no"?><!DOCTYPE svg PUBLIC "-//W3C//DTD SVG 1.1//EN" "http://www.w3.org/Graphics/SVG/1.1/DTD/svg11.dtd"><svg class="icon" width="128px" height="128.00px" viewBox="0 0 1024 1024" version="1.1" xmlns="http://www.w3.org/2000/svg"><path d="M512 0C229.286957 0 0 229.286957 0 512c0 282.713043 229.286957 512 512 512s512-229.286957 512-512C1024 229.286957 794.713043 0 512 0zM512 883.756522c-17.808696 0-33.391304-15.582609-33.391304-33.391304s15.582609-33.391304 33.391304-33.391304 33.391304 15.582609 33.391304 33.391304S529.808696 883.756522 512 883.756522zM545.391304 198.121739 534.26087 638.886957c0 13.356522-11.130435 24.486957-22.26087 24.486957s-22.26087-11.130435-22.26087-24.486957L478.608696 198.121739c0 0 0 0 0-2.226087 0 0 0-2.226087 0-2.226087 0-17.808696 15.582609-33.391304 33.391304-33.391304s33.391304 15.582609 33.391304 33.391304C545.391304 195.895652 545.391304 195.895652 545.391304 198.121739 545.391304 198.121739 545.391304 198.121739 545.391304 198.121739z" fill="#d81e06" /></svg>