<?xml version="1.0" standalone="no"?><!DOCTYPE svg PUBLIC "-//W3C//DTD SVG 1.1//EN" "http://www.w3.org/Graphics/SVG/1.1/DTD/svg11.dtd"><svg class="icon" width="128px" height="128.00px" viewBox="0 0 1024 1024" version="1.1" xmlns="http://www.w3.org/2000/svg"><path d="M126.848 868.736a40.96 40.96 0 0 1-41.504-40.384V307.232a49.152 49.152 0 0 1 47.392-43.456h158.016s40.896-93.12 63.2-93.12h314.08c24.736 0 65.152 93.12 65.152 93.12l164.032 3.136a40.928 40.928 0 0 1 41.44 40.32v521.12a40.8 40.8 0 0 1-41.312 40.384H126.848z m511.232-311.168l75.584 111.52 75.584-111.52h-47.232c0-47.04-14.56-92.928-41.6-131.392a20.288 20.288 0 0 0-1.088-1.92c-3.264-4.512-6.784-8.8-10.304-13.056l-1.248-1.6a232.96 232.96 0 0 0-88.16-65.12l-2.816-1.28a267.2 267.2 0 0 0-16.64-6.016c-1.984-0.64-3.968-1.344-6.048-1.952a232.736 232.736 0 0 0-14.848-3.776c-2.752-0.64-5.504-1.28-8.32-1.856-1.376-0.256-2.656-0.64-4.032-0.896-3.712-0.64-7.488-0.928-11.2-1.408-2.592-0.32-5.12-0.704-7.744-0.96a248.768 248.768 0 0 0-18.752-0.96c-1.088 0-2.208-0.16-3.936-0.16a236.864 236.864 0 0 0-134.816 41.952 27.616 27.616 0 0 0-6.976 38.848 28.576 28.576 0 0 0 39.456 6.848 180.16 180.16 0 0 1 120-31.072c1.568 0.16 3.136 0.384 4.704 0.608 4.256 0.48 8.48 1.12 12.672 1.92 1.856 0.32 3.648 0.8 5.44 1.216 4.096 0.96 8.192 1.92 12.16 3.136 1.28 0.384 2.528 0.864 3.776 1.28 4.544 1.408 9.056 3.04 13.44 4.8l1.376 0.64c26.176 11.04 49.376 28.16 68.032 50.304a174.208 174.208 0 0 1 40.736 111.872H638.08z m-272.352 110.016a173.984 173.984 0 0 1-39.36-109.984h47.2L298.016 446.08l-75.552 111.552h47.2c0 47.168 14.624 93.152 41.824 131.68 0.32 0.512 0.544 1.056 0.896 1.568 2.72 3.84 5.76 7.424 8.672 11.008l3.264 4.16c4.288 5.12 8.864 9.984 13.568 14.72a233.952 233.952 0 0 0 54.4 40.48l1.536 0.864c5.632 2.944 11.36 5.664 17.184 8.16l4.352 1.92c5.024 2.016 10.112 3.84 15.264 5.504 2.432 0.8 4.864 1.664 7.36 2.368 4.48 1.344 9.024 2.464 13.76 3.52 3.072 0.704 6.08 1.472 9.28 2.048 1.28 0.256 2.496 0.672 3.808 0.864 4.352 0.768 8.768 1.184 13.152 1.728 1.6 0.16 3.136 0.416 4.736 0.608 7.872 0.768 15.712 1.28 23.584 1.28 48.256 0 95.36-14.72 135.04-42.144a27.616 27.616 0 0 0 6.912-38.848 28.576 28.576 0 0 0-39.456-6.848 180.064 180.064 0 0 1-105.088 31.808 196.032 196.032 0 0 1-14.656-0.704c-1.984-0.192-3.968-0.48-5.952-0.736-3.84-0.512-7.648-0.992-11.36-1.696-2.304-0.48-4.544-1.056-6.784-1.6a184 184 0 0 1-10.816-2.72c-1.728-0.512-3.392-1.12-5.12-1.664a205.44 205.44 0 0 1-12.128-4.384l-2.656-1.184a194.944 194.944 0 0 1-14.272-6.816 182.112 182.112 0 0 1-52.128-42.304l-2.112-2.656z" /></svg>